<mxfile host="65bd71144e">
    <diagram id="pIaEtrtLPv3HG8r1JEND" name="Page-1">
        <mxGraphModel dx="606" dy="512" grid="1" gridSize="10" guides="1" tooltips="1" connect="1" arrows="1" fold="1" page="1" pageScale="1" pageWidth="850" pageHeight="1100" math="0" shadow="0">
            <root>
                <mxCell id="0"/>
                <mxCell id="1" parent="0"/>
                <mxCell id="6" value="http://ics2o.mths.ca" style="swimlane;whiteSpace=wrap;html=1;" vertex="1" parent="1">
                    <mxGeometry x="200" y="460" width="760" height="480" as="geometry"/>
                </mxCell>
                <mxCell id="7" value="http://ics2o.mths.ca" style="swimlane;whiteSpace=wrap;html=1;" vertex="1" parent="1">
                    <mxGeometry x="200" y="460" width="760" height="510" as="geometry"/>
                </mxCell>
                <mxCell id="9" value="&lt;span style=&quot;color: rgba(0, 0, 0, 0); font-family: monospace; font-size: 0px; text-align: start;&quot;&gt;%3CmxGraphModel%3E%3Croot%3E%3CmxCell%20id%3D%220%22%2F%3E%3CmxCell%20id%3D%221%22%20parent%3D%220%22%2F%3E%3CmxCell%20id%3D%222%22%20value%3D%22%26lt%3Bfont%20style%3D%26quot%3Bfont-size%3A%2017px%26quot%3B%26gt%3B(icon)%20with%20few%20clouds%20(description)%26lt%3B%2Ffont%26gt%3B%22%20style%3D%22text%3Bhtml%3D1%3Bresizable%3D0%3Bautosize%3D1%3Balign%3Dcenter%3BverticalAlign%3Dmiddle%3Bpoints%3D%5B%5D%3BfillColor%3Dnone%3BstrokeColor%3Dnone%3Brounded%3D0%3B%22%20vertex%3D%221%22%20parent%3D%221%22%3E%3CmxGeometry%20x%3D%22519%22%20y%3D%22665%22%20width%3D%22280%22%20height%3D%2220%22%20as%3D%22geometry%22%2F%3E%3C%2FmxCell%3E%3C%2Froot%3E%3C%2FmxGraphModel%3E&lt;/span&gt;" style="text;html=1;align=center;verticalAlign=middle;resizable=0;points=[];autosize=1;strokeColor=none;fillColor=none;" vertex="1" parent="7">
                    <mxGeometry x="210" y="110" width="20" height="30" as="geometry"/>
                </mxCell>
                <mxCell id="18" value="&lt;font style=&quot;font-size: 17px&quot;&gt;The current weather is _Â°C&amp;nbsp;&lt;/font&gt;" style="text;html=1;resizable=0;autosize=1;align=center;verticalAlign=middle;points=[];fillColor=none;strokeColor=none;rounded=0;" vertex="1" parent="7">
                    <mxGeometry x="10" y="140" width="220" height="20" as="geometry"/>
                </mxCell>
                <mxCell id="19" value="" style="shape=image;verticalLabelPosition=bottom;labelBackgroundColor=#ffffff;verticalAlign=top;aspect=fixed;imageAspect=0;image=data:image/png,iVBORw0KGgoAAAANSUhEUgAAACwAAAAvCAYAAACYECivAAAKymlDQ1BJQ0MgUHJvZmlsZQAASImVlwdUU+kSgOfe9JAQIBABKaE3QYp0KaEHECIdRCUkAUIJMRAU7MriCq4KIiJYVnBVRMG1ALJWLFhRbNgXZFFR10VdbKi8CzzC7nvnvXfe3POf/7tz55+Z/z//nDMXgE7mS6WZqApAliRXFhHow46LT2CTfgMKqGKPDujxBTlSDo8XCpiMz3+X93cAGZlvWo/4+vfv/1VUhaIcAQDCwzhZmCPIwvgwNl4LpLJcANxOTG80P1c6whcwVpdhCWL8cIRTx3hghJNHGY8ftYmK8MVYE4BM4/NlqQA0Y0zPzhOkYn5ofhjbSoRiCcbYO3gK0vhCjLG4MCUrK3uEuzE2T/6Ln9S/+UxW+OTzUxU8tpdRIfuJc6SZ/Pz/8zj+t2RlysdjmGKDliYLisBmFnZmdzOyQxQsSQ4LH2excNR+lNPkQdHjLMjxTRhnId8vRLE2Myx0nFPEAVyFn1xu1DiLcvwjx1mWHaGIlSLz5YwzXzYRV54RrdCnibgK/wVpUbHjnCeOCRvnnIzIkAkbX4VeJo9Q5C+SBPpMxA1Q7D0r5y/7FXMVa3PTooIUe+dP5C+ScCZ85sQpchOK/PwnbKIV9tJcH0UsaSZPYS/KDFToc/IiFWtzsQs5sZanOMN0fjBvnCEU/CEM2MADe3AGOViDHdgC5IoWjNxR8M2W5svEqWm5bA5WZSI2VyKwmcK2t7XHbEZqduxKvIsYrUWEdWJCl43VkMt7rE5KJ3TJ5QDNRQCa9yd0xtsAGIUATW0CuSxvTDdSTkAAKjBAHbRAD4zAHMvMHpzAHbyxjIMhHKIgHuaAANIgC2QwHxbBciiCElgPG6EKtkMt7IH9cBCa4RichvNwGa7DbXgA3dAHL2EA3sMQgiAkhI4wES1EHzFBrBB7xAXxRPyRUCQCiUeSkFREgsiRRchKpAQpQ6qQHUgd8jNyFDmNXEQ6kXtID9KPvEU+oziUhqqjuqgpOhV1QTloCBqFzkZT0XloAVqIrkUr0Rp0H9qEnkYvo7fRbvQlOogDnBKOhTPAWeNccL64cFwCLgUnwy3BFeMqcDW4Blwrrh13E9eNe4X7hCfimXg23hrvjg/CR+MF+Hn4Jfg1+Cr8HnwT/iz+Jr4HP4D/RqATdAhWBDcClxBHSCXMJxQRKgi7CEcI5wi3CX2E90QikUU0IzoTg4jxxHTiQuIa4lZiI/EUsZPYSxwkkUhaJCuSBymcxCflkopIm0n7SCdJN0h9pI9kJbI+2Z4cQE4gS8gryBXkveQT5BvkZ+QhigrFhOJGCacIKfmUdZSdlFbKNUofZYiqSjWjelCjqOnU5dRKagP1HPUh9Z2SkpKhkqvSTCWx0jKlSqUDSheUepQ+0dRoljRfWiJNTltL2007RbtHe0en003p3vQEei59Lb2Ofob+mP5Rmalso8xVFiovVa5WblK+ofyaQWGYMDiMOYwCRgXjEOMa45UKRcVUxVeFr7JEpVrlqEqXyqAqU9VONVw1S3WN6l7Vi6rP1Uhqpmr+akK1QrVatTNqvUwc04jpyxQwVzJ3Ms8x+9SJ6mbqXPV09RL1/eod6gMaahrTNGI0FmhUaxzX6GbhWKYsLiuTtY51kHWH9XmS7iTOJNGk1ZMaJt2Y9EFzsqa3pkizWLNR87bmZy22lr9WhlapVrPWI228tqX2TO352tu0z2m/mqw+2X2yYHLx5IOT7+ugOpY6EToLdWp1rugM6urpBupKdTfrntF9pcfS89ZL1yvXO6HXr8/U99QX65frn9R/wdZgc9iZ7Er2WfaAgY5BkIHcYIdBh8GQoZlhtOEKw0bDR0ZUIxejFKNyozajAWN94xnGi4zrje+bUExcTNJMNpm0m3wwNTONNV1l2mz63EzTjGtWYFZv9tCcbu5lPs+8xvyWBdHCxSLDYqvFdUvU0tEyzbLa8poVauVkJbbaatU5hTDFdYpkSs2ULmuaNcc6z7reuseGZRNqs8Km2eb1VOOpCVNLp7ZP/WbraJtpu9P2gZ2aXbDdCrtWu7f2lvYC+2r7Ww50hwCHpQ4tDm+mWU0TTds27a4j03GG4yrHNsevTs5OMqcGp35nY+ck5y3OXS7qLjyXNS4XXAmuPq5LXY+5fnJzcst1O+j2h7u1e4b7Xvfn082mi6bvnN7rYejB99jh0e3J9kzy/NGz28vAi+9V4/XE28hb6L3L+xnHgpPO2cd57WPrI/M54vPB1813se8pP5xfoF+xX4e/mn+0f5X/4wDDgNSA+oCBQMfAhYGngghBIUGlQV1cXa6AW8cdCHYOXhx8NoQWEhlSFfIk1DJUFto6A50RPGPDjIdhJmGSsOZwCOeGbwh/xDPjzeP9MpM4kzezeubTCLuIRRHtkczIuZF7I99H+USti3oQbR4tj26LYcQkxtTFfIj1iy2L7Y6bGrc47nK8drw4viWBlBCTsCthcJb/rI2z+hIdE4sS78w2m71g9sU52nMy5xyfy5jLn3soiZAUm7Q36Qs/nF/DH0zmJm9JHhD4CjYJXgq9heXCfpGHqEz0LMUjpSzleapH6obU/jSvtIq0V2JfcZX4TXpQ+vb0DxnhGbszhjNjMxuzyFlJWUclapIMydlsvewF2Z1SK2mRtHue27yN8wZkIbJdOUjO7JyWXHWsOboiN5d/J+/J88yrzvs4P2b+oQWqCyQLruRb5q/Of1YQUPDTQvxCwcK2RQaLli/qWcxZvGMJsiR5SdtSo6WFS/uWBS7bs5y6PGP51RW2K8pW/LkydmVroW7hssLe7wK/qy9SLpIVda1yX7X9e/z34u87Vjus3rz6W7Gw+FKJbUlFyZc1gjWXfrD7ofKH4bUpazvWOa3btp64XrL+TqlX6Z4y1bKCst4NMzY0lbPLi8v/3Dh348WKaRXbN1E3yTd1V4ZWtmw23rx+85eqtKrb1T7VjVt0tqze8mGrcOuNbd7bGrbrbi/Z/vlH8Y93dwTuaKoxramoJdbm1T7dGbOz/SeXn+p2ae8q2fV1t2R3956IPWfrnOvq9ursXVeP1svr+/cl7ru+329/S4N1w45GVmPJATggP/Di56Sf7xwMOdh2yOVQw2GTw1uOMI8UNyFN+U0DzWnN3S3xLZ1Hg4+2tbq3HvnF5pfdxwyOVR/XOL7uBPVE4YnhkwUnB09JT706nXq6t21u24MzcWdunZ15tuNcyLkL5wPOn2nntJ+84HHh2EW3i0cvuVxqvux0uemK45UjVx2vHulw6mi65nyt5brr9dbO6Z0nbnjdOH3T7+b5W9xbl2+H3e68E33nbldiV/dd4d3n9zLvvbmfd3/owbKHhIfFj1QeVTzWeVzzq8Wvjd1O3cd7/HquPIl88qBX0Pvyt5zfvvQVPqU/rXim/6zuuf3zY/0B/ddfzHrR91L6cuhV0e+qv295bf768B/ef1wZiBvoeyN7M/x2zTutd7v/nPZn2yBv8PH7rPdDH4o/an3c88nlU/vn2M/PhuZ/IX2p/GrxtfVbyLeHw1nDw1K+jD/aCuCwgaakALzdDUCPB2BeB6DOGuupRwUZ+w8YJfhPPNZ3j4oTQG0XQNRCgNCrAJursJYW889IBOAxML07oA4OivFPyUlxsB/zRfPCWpNHw8PvzAFIpQBfS4eHh2qHh7/WYsk+ADiVP9bLj4htAwD/QACHZ3evkQ7/Kv8AuJsTAmiTStcAAABiZVhJZk1NACoAAAAIAAIBEgADAAAAAQABAACHaQAEAAAAAQAAACYAAAAAAAOShgAHAAAAEgAAAFCgAgAEAAAAAQAAACygAwAEAAAAAQAAAC8AAAAAQVNDSUkAAABTY3JlZW5zaG90pvxw7QAAAj5pVFh0WE1MOmNvbS5hZG9iZS54bXAAAAAAADx4OnhtcG1ldGEgeG1sbnM6eD0iYWRvYmU6bnM6bWV0YS8iIHg6eG1wdGs9IlhNUCBDb3JlIDUuNC4wIj4KICAgPHJkZjpSREYgeG1sbnM6cmRmPSJodHRwOi8vd3d3LnczLm9yZy8xOTk5LzAyLzIyLXJkZi1zeW50YXgtbnMjIj4KICAgICAgPHJkZjpEZXNjcmlwdGlvbiByZGY6YWJvdXQ9IiIKICAgICAgICAgICAgeG1sbnM6ZXhpZj0iaHR0cDovL25zLmFkb2JlLmNvbS9leGlmLzEuMC8iCiAgICAgICAgICAgIHhtbG5zOnRpZmY9Imh0dHA6Ly9ucy5hZG9iZS5jb20vdGlmZi8xLjAvIj4KICAgICAgICAgPGV4aWY6VXNlckNvbW1lbnQ+U2NyZWVuc2hvdDwvZXhpZjpVc2VyQ29tbWVudD4KICAgICAgICAgPGV4aWY6UGl4ZWxYRGltZW5zaW9uPjE0NDA8L2V4aWY6UGl4ZWxYRGltZW5zaW9uPgogICAgICAgICA8ZXhpZjpQaXhlbFlEaW1lbnNpb24+OTAwPC9leGlmOlBpeGVsWURpbWVuc2lvbj4KICAgICAgICAgPHRpZmY6T3JpZW50YXRpb24+MTwvdGlmZjpPcmllbnRhdGlvbj4KICAgICAgPC9yZGY6RGVzY3JpcHRpb24+CiAgIDwvcmRmOlJERj4KPC94OnhtcG1ldGE+CjCm1LEAAANFSURBVGgF7Vg9aBRREP7e3u1ubpMYEUHERrSJiogEMWghoggKqcRGLAxiY6GVoNhY2AgKae2CgrVopxaCglFQ8Q9RFKwsDMSYu9ztz+2uM5dcyP68za7sLRzswOXuvZk38+33Zua9jfBJ0Eei9BHWDtQScK93rGS4ZDjEQJkSIUJyH5YM505pyGHJcIiQ3Iclw7lTGnJYMhwiJPdh3zFczZ2CGIfe7C84P7/CW5gDKioqm7ZA3b4LQhuIsU6e6ilg690LmM8eoE1gw6LUBqHuOQDjxBkoIxvCaulY9OKdzndsNO5PwX77XBq4qxDGEIZOX4K2e7w7lfj934Adx0G73YbvexBCoFqt0kcFXBf1O9fhfHufGDigpPXD564R6P2B6bhB5qJzCVCjUYdptgiwQ/jcDnDTNLFoWWjOPIb94WVcLPkcvbg37t6C+2dWbrOsyQSYwbVaTWI1/j8Dvm3BGz8GZccYfHqYLOLbJpoPp9dckhowg0wC24lEW4vmItTJKxCVyprBwwa8M/5iPTwdGKcG7Lqcr/HMBjwyaN2AMnYYIJb9xl/6zMO3WgGz2AHZ21/exKq6k6nbGqdDaqEuoVABeT8+Qj11AaJmwPv+Ge6jaUAh5hU5T159PjFM6i7Rai0VWaK3VUrfo+4xUAMor2lrQC0EMJuwb5zvdJJVpoGfxsRZ1I6eDMytHsgfddnKo8DMLu90FhHMIoNl4cW8Q3SyVSevJuap0LSlNZK/0pRgkJZldsBK1mafJqaVraMQuvxIVjZuTvQbC5j7K6dAT4SLlwoRmk4pMxjIZ2V4PbTRvYlhI4A5BfgQ6JmQf/XizU66uK+fwvv0CsJYR+F86AePLxVlQvBI0XEa2LadsCQnlaAc11R4M0/g3LuN6radGLk8BcHHe4JEGOY7QiFCdxAQOcq+I1DnfmP40MSaYBlXhOF6faEQvCtBuBApnwcH5IW4Yks/Im1N4cZepFDLy3LviADma2LRwtfTtBIBrFHjzuIgbaAku0olPUkRwAzWMIzCQCt0Iuq6nvQ8AV2k6LpavplZdCHnWxr35l6wzm8ovKMMOq1IAad1ULRd+kcrGpkkXglYQkxu0yXDuVEpcdR3DP8DcBIxjuYjeKEAAAAASUVORK5CYII=;" vertex="1" parent="7">
                    <mxGeometry x="260" y="116.5" width="44" height="47" as="geometry"/>
                </mxCell>
                <mxCell id="20" value="&lt;font style=&quot;font-size: 17px&quot;&gt;(icon) with few clouds (description)&lt;/font&gt;" style="text;html=1;resizable=0;autosize=1;align=center;verticalAlign=middle;points=[];fillColor=none;strokeColor=none;rounded=0;" vertex="1" parent="7">
                    <mxGeometry x="330" y="140" width="280" height="20" as="geometry"/>
                </mxCell>
                <mxCell id="22" value="&lt;font style=&quot;font-size: 22px;&quot;&gt;Weather&lt;/font&gt;" style="text;html=1;align=center;verticalAlign=middle;resizable=0;points=[];autosize=1;strokeColor=none;fillColor=none;" vertex="1" parent="1">
                    <mxGeometry x="435" y="490" width="110" height="40" as="geometry"/>
                </mxCell>
            </root>
        </mxGraphModel>
    </diagram>
</mxfile>